<svg width="24" height="24" viewBox="0 0 24 24" fill="none" xmlns="http://www.w3.org/2000/svg">
<path fill-rule="evenodd" clip-rule="evenodd" d="M16.1143 4.28606L13.1145 7.28582H7.14261C6.14921 7.28582 5.78897 7.38925 5.4258 7.58348C5.06262 7.77771 4.7776 8.06273 4.58337 8.42591C4.38915 8.78908 4.28571 9.14931 4.28571 10.1427V16.8575C4.28571 17.8509 4.38915 18.2111 4.58337 18.5743C4.7776 18.9375 5.06262 19.2225 5.4258 19.4167C5.78897 19.611 6.14921 19.7144 7.14261 19.7144H15.1431C16.1365 19.7144 16.4967 19.611 16.8599 19.4167C17.2231 19.2225 17.5081 18.9375 17.7023 18.5743C17.8966 18.2111 18 17.8509 18 16.8575V9.6001L19.715 7.88508V16.4843C19.715 18.2036 19.536 18.8271 19.1998 19.4557C18.8637 20.0843 18.3704 20.5776 17.7418 20.9137C17.1132 21.2499 16.4897 21.4289 14.7704 21.4289H7.51606C5.7967 21.4289 5.17322 21.2499 4.54465 20.9137C3.91608 20.5776 3.42277 20.0843 3.08661 19.4557C2.75045 18.8271 2.57143 18.2036 2.57143 16.4843V9.23069C2.57143 7.51134 2.75045 6.88786 3.08661 6.25929C3.42277 5.63071 3.91608 5.13741 4.54465 4.80124C5.17322 4.46508 5.7967 4.28606 7.51606 4.28606H16.1143ZM20.856 2.89804L21.0983 3.14061C21.5334 3.57571 21.5335 4.28113 21.0984 4.71631L10.6927 15.1259L8.14286 15.8572L8.87447 13.3076L19.2802 2.89804C19.7152 2.46281 20.4208 2.46268 20.856 2.89776L20.8561 2.8979L20.856 2.89804Z" fill="#0061D9"/>
</svg>
